<svg xmlns="http://www.w3.org/2000/svg" viewBox="0 0 128 128" role="img" aria-labelledby="title desc">
  <title id="title">ApiPanda 熊猫图标</title>
  <desc id="desc">原创几何风格的大熊猫抱着竹子</desc>
  <circle cx="64" cy="64" r="60" fill="#173f31"/>
  <circle cx="64" cy="64" r="53" fill="#e9f4cf"/>
  <path d="M22 84c7-11 13-20 18-35M99 91c-4-15-5-27-3-39" fill="none" stroke="#4f9a45" stroke-width="4" stroke-linecap="round"/>
  <path d="M30 65c-9-1-13-5-15-11 8-1 13 2 17 7M34 55c-1-8 2-13 8-17 2 8 0 14-6 19M96 70c8-4 14-3 19 1-6 6-12 7-19 3M95 58c5-7 10-9 17-7-2 8-7 12-15 13" fill="#66ad4e"/>
  <circle cx="43" cy="42" r="15" fill="#202725"/>
  <circle cx="85" cy="42" r="15" fill="#202725"/>
  <path d="M36 48c3-20 16-29 28-29s25 9 28 29c3 19-7 40-28 40S33 67 36 48Z" fill="#fffdf5"/>
  <path d="M41 70c-10 8-12 24-3 31 7 5 16 1 22-7h8c6 8 15 12 22 7 9-7 7-23-3-31-12 8-34 8-46 0Z" fill="#202725"/>
  <ellipse cx="49" cy="53" rx="10" ry="14" transform="rotate(24 49 53)" fill="#202725"/>
  <ellipse cx="79" cy="53" rx="10" ry="14" transform="rotate(-24 79 53)" fill="#202725"/>
  <circle cx="51" cy="51" r="3.5" fill="#fff"/>
  <circle cx="77" cy="51" r="3.5" fill="#fff"/>
  <circle cx="52" cy="52" r="1.6" fill="#173f31"/>
  <circle cx="76" cy="52" r="1.6" fill="#173f31"/>
  <ellipse cx="64" cy="65" rx="14" ry="11" fill="#fff"/>
  <path d="M59 62q5-5 10 0-1 6-5 6t-5-6Z" fill="#202725"/>
  <path d="M64 68c0 5 6 6 9 2" fill="none" stroke="#202725" stroke-width="2.5" stroke-linecap="round"/>
  <path d="M75 94 53 72" fill="none" stroke="#69ad42" stroke-width="8" stroke-linecap="round"/>
  <path d="m58 77 11-2M64 84l11-2M70 90l10-2" fill="none" stroke="#a6d45e" stroke-width="2" stroke-linecap="round"/>
  <path d="M51 83c4-5 8-5 12-1M77 83c-4-5-8-5-12-1" fill="none" stroke="#fffdf5" stroke-width="5" stroke-linecap="round"/>
</svg>
